<svg width="402" height="171" viewBox="0 0 402 171" fill="none" xmlns="http://www.w3.org/2000/svg">
<path d="M189.024 29.0384C188.737 31.2991 191.091 33.0933 193.185 32.9518C195.5 32.7954 197.464 30.8971 197.802 28.6224C198.169 26.1604 196.689 24.1913 194.401 24.0109C192.173 23.8352 190.747 25.8182 191.391 27.8193C191.852 29.2539 193.162 29.7888 193.822 29.3929C194.336 29.0843 194.305 28.3063 193.682 28.1689C193.433 28.1139 193.176 28.253 193.043 28.4445C192.498 28.2283 191.979 27.236 192.331 26.1649C192.781 24.7966 194.511 24.7183 195.585 25.3565C196.953 26.1687 197.167 27.9178 196.666 29.3116C196.139 30.775 194.702 31.9278 193.137 32.0388C191.365 32.1646 189.805 30.8058 189.663 29.0403C189.63 28.6236 189.075 28.6337 189.024 29.0384Z" fill="#F48C7F"/>
<path d="M50.5103 48.8407L51.9968 45.4859L50.0757 42.3594C49.8569 42.0033 50.1414 41.5509 50.5572 41.5938L54.2072 41.9708L56.5871 39.1776C56.8581 38.8595 57.3763 38.9902 57.4639 39.3989L58.2333 42.9868L61.6251 44.387C62.0114 44.5465 62.0471 45.0798 61.6856 45.2893L58.5109 47.1298L58.2275 50.7883C58.1952 51.205 57.6991 51.4039 57.388 51.1247L54.6566 48.6742L51.0896 49.5352C50.6834 49.6333 50.3411 49.2228 50.5103 48.8407Z" fill="#F48C7F"/>
<path d="M312.383 31.3814L313.498 28.865L312.057 26.5198C311.893 26.2528 312.106 25.9134 312.418 25.9456L315.156 26.2283L316.941 24.1332C317.144 23.8946 317.533 23.9927 317.599 24.2991L318.176 26.9904L320.72 28.0406C321.01 28.1603 321.037 28.5602 320.765 28.7175L318.384 30.098L318.171 32.8423C318.147 33.1549 317.775 33.3039 317.542 33.0946L315.493 31.2565L312.817 31.9024C312.513 31.976 312.256 31.6681 312.383 31.3814Z" fill="#F7CC7F"/>
<path d="M348.7 72.0378L350.279 69.1697L355.175 71.2001L358 67.291L361.912 68.2115L362.378 66.2312L357.146 65L354.468 68.7044L349.376 66.5924L347 70.9084L348.7 72.0378Z" fill="#50BFA5"/>
<path d="M275.105 25.5269L277.163 22.1849L275.51 21.5148C275.149 21.3681 274.975 20.9561 275.121 20.5946C275.268 20.233 275.68 20.0588 276.041 20.2054L277.947 20.9782L279.786 17.977L278.022 17.2613C277.66 17.1147 277.486 16.7027 277.632 16.3412C277.779 15.9797 278.191 15.8055 278.553 15.952L280.571 16.7704L282.707 13.3336C282.889 13.0416 283.254 12.9227 283.573 13.0518L283.881 13.1768C284.285 13.3408 284.446 13.8286 284.218 14.2007L282.231 17.4437L285.157 18.6302L287.293 15.1934C287.474 14.9015 287.84 14.7825 288.158 14.9118L288.495 15.0482C288.899 15.2122 289.06 15.6999 288.832 16.0719L286.845 19.3148L288.497 19.9848C288.859 20.1315 289.033 20.5434 288.886 20.9051C288.739 21.2666 288.327 21.4409 287.966 21.2943L286.06 20.5215L284.249 23.5341L286.014 24.2499C286.375 24.3964 286.55 24.8085 286.403 25.17C286.256 25.5317 285.844 25.7059 285.483 25.5592L283.464 24.7408L281.282 28.2851C281.102 28.5788 280.735 28.699 280.415 28.5694L280.055 28.4232C279.65 28.259 279.49 27.7702 279.719 27.3982L281.776 24.0563L278.85 22.8697L276.668 26.414C276.487 26.7078 276.121 26.828 275.801 26.6983L275.441 26.5523C275.036 26.3876 274.876 25.8989 275.105 25.5269ZM282.561 22.8493L284.4 19.8482L281.474 18.6616L279.635 21.6628L282.561 22.8493Z" fill="#50BFA5"/>
<g filter="url(#filter0_d_394_428)">
<g opacity="0.3">
<path d="M0 170.585H402V113.799C402 113.799 374.507 129.455 352.531 109.623C337.424 95.9902 296.21 113.937 254.464 104.661C212.717 95.3856 182.822 84.0047 130.166 97.9503C77.5104 111.897 71.883 121.095 58.2155 119.31C44.5475 117.525 21.7257 131.487 0 118.328V170.585Z" fill="white"/>
<path d="M216.327 26.1375V170.257H234.767H254.464V0L216.327 26.1375Z" fill="black"/>
<path d="M251.328 15.138L218.614 37.278L218.609 35.6089L251.324 13.4705L251.328 15.138Z" fill="white"/>
<path d="M251.345 21.6825L233.935 33.6166L233.929 31.9469L251.341 20.0123L251.345 21.6825Z" fill="white"/>
<path d="M251.366 28.2254L243.105 34.1707L243.101 32.5016L251.359 26.5563L251.366 28.2254Z" fill="white"/>
<path d="M251.328 46.7163L218.614 68.8548L218.609 67.1857L251.324 45.0472L251.328 46.7163Z" fill="white"/>
<path d="M251.345 53.2609L233.935 65.1917L233.929 63.5247L251.342 51.5923L251.345 53.2609Z" fill="white"/>
<path d="M251.366 59.8032L243.105 65.7475L243.101 64.0784L251.359 58.1357L251.366 59.8032Z" fill="white"/>
<path d="M251.328 78.2932L218.614 100.434L218.609 98.7625L251.324 76.6246L251.328 78.2932Z" fill="white"/>
<path d="M251.345 84.836L233.935 96.7701L233.929 95.1004L251.342 83.1691L251.345 84.836Z" fill="white"/>
<path d="M251.366 91.3812L243.105 97.326L243.101 95.6558L251.359 89.7115L251.366 91.3812Z" fill="white"/>
<path opacity="0.24" d="M226.639 170.257H216.327V26.1378L226.36 19.3156L226.639 170.257Z" fill="white"/>
<path d="M268.086 26.2081L268.345 170.326L261.721 170.293L254.464 170.258V0.000366211L268.086 26.2081Z" fill="#686868"/>
<path d="M170.889 170.325H143.275V31.2361L156.279 25.249L170.889 31.2361V170.325Z" fill="black"/>
<path d="M168.257 166.32H151.335L151.542 162.328H168.257V166.32Z" fill="white"/>
<path d="M168.257 157.344H151.796L151.992 153.565H168.257V157.344Z" fill="white"/>
<path d="M168.257 148.841H152.238L152.422 145.264H168.257V148.841Z" fill="white"/>
<path d="M168.257 140.784H152.652L152.827 137.386H168.257V140.784Z" fill="white"/>
<path d="M168.257 133.133H153.046L153.214 129.906H168.257V133.133Z" fill="white"/>
<path d="M168.257 125.859H153.421L153.58 122.789H168.257V125.859Z" fill="white"/>
<path d="M168.257 118.935H153.778L153.932 116.009H168.257V118.935Z" fill="white"/>
<path d="M168.257 112.338H154.12L154.264 109.547H168.257V112.338Z" fill="white"/>
<path d="M168.257 106.042H154.443L154.582 103.381H168.257V106.042Z" fill="white"/>
<path d="M168.257 100.031H154.755L154.886 97.4857H168.257V100.031Z" fill="white"/>
<path d="M168.257 94.2848H155.053L155.178 91.847H168.257V94.2848Z" fill="white"/>
<path d="M168.257 88.7859H155.334L155.454 86.4506H168.257V88.7859Z" fill="white"/>
<path d="M168.257 83.5155H155.606L155.722 81.2766H168.257V83.5155Z" fill="white"/>
<path d="M168.257 78.4646H155.867L155.977 76.3169H168.257V78.4646Z" fill="white"/>
<path d="M168.257 73.6149H156.118L156.223 71.554H168.257V73.6149Z" fill="white"/>
<path d="M168.257 68.9587H156.358L156.46 66.9792H168.257V68.9587Z" fill="white"/>
<path d="M168.257 64.4832H156.588L156.686 62.5793H168.257V64.4832Z" fill="white"/>
<path d="M168.257 60.1785H156.811L156.906 58.3464H168.257V60.1785Z" fill="white"/>
<path d="M168.257 56.0346H157.025L157.114 54.2675H168.257V56.0346Z" fill="white"/>
<path d="M168.257 52.0405H157.231L157.319 50.3408H168.257V52.0405Z" fill="white"/>
<path opacity="0.3" d="M150.091 168.951H146.053V32.5681L150.091 32.5435V168.951Z" fill="#F7FFFF"/>
<path d="M299.017 169.67H269.375V60.8309L284.677 44.6212H299.017V169.67Z" fill="black"/>
<path d="M294.696 76.2837H272.992V79.3201H294.696V76.2837Z" fill="white"/>
<path d="M294.696 82.0883H272.992V85.1263H294.696V82.0883Z" fill="white"/>
<path d="M294.696 87.8929H272.992V90.931H294.696V87.8929Z" fill="white"/>
<path d="M294.696 93.699H272.992V96.7354H294.696V93.699Z" fill="white"/>
<path d="M294.696 99.5034H272.992V102.542H294.696V99.5034Z" fill="white"/>
<path d="M294.696 105.31H272.992V108.346H294.696V105.31Z" fill="white"/>
<path d="M294.696 111.114H272.992V114.151H294.696V111.114Z" fill="white"/>
<path d="M294.696 116.918H272.992V119.958H294.696V116.918Z" fill="white"/>
<path d="M294.696 122.724H272.992V125.762H294.696V122.724Z" fill="white"/>
<path d="M294.696 128.529H272.992V131.567H294.696V128.529Z" fill="white"/>
<path d="M294.696 134.335H272.992V137.372H294.696V134.335Z" fill="white"/>
<path d="M294.696 140.139H272.992V143.179H294.696V140.139Z" fill="white"/>
<path d="M294.696 145.945H272.992V148.983H294.696V145.945Z" fill="white"/>
<path d="M294.696 151.749H272.992V154.788H294.696V151.749Z" fill="white"/>
<path d="M294.696 157.556H272.992V160.592H294.696V157.556Z" fill="white"/>
<path d="M290.073 56.1113H286.217V59.9668H290.073V56.1113Z" fill="white"/>
<path d="M283.329 61.1691H279.475V65.024H283.329V61.1691Z" fill="white"/>
<path d="M294.502 67.1471H290.645V71.0042H294.502V67.1471Z" fill="white"/>
<path d="M302.684 44.6211H299.017V170.325H302.684V44.6211Z" fill="#686868"/>
<path d="M193.488 170.325H172.544V63.0858L193.488 52.6156V170.325Z" fill="black"/>
<path d="M193.488 170.325H214.429V63.0858L193.488 52.6156V170.325Z" fill="#686868"/>
<path d="M212.717 69.1699L196.713 61.2098V59.2839L212.717 67.2446V69.1699Z" fill="black"/>
<path d="M212.717 74.799L196.713 66.8388V64.9114L212.717 72.8731V74.799Z" fill="black"/>
<path d="M212.717 80.4264L196.713 72.4662V70.5404L212.717 78.5005V80.4264Z" fill="black"/>
<path d="M212.717 86.0548L196.713 78.0941V76.1688L212.717 84.1279V86.0548Z" fill="black"/>
<path d="M212.717 91.684L196.713 83.7223V81.7959L212.717 89.7571V91.684Z" fill="black"/>
<path d="M212.717 97.3115L196.713 89.3497V87.4233L212.717 95.3856V97.3115Z" fill="black"/>
<path d="M212.717 102.941L196.713 94.9789V93.0525L212.717 101.013V102.941Z" fill="black"/>
<path d="M212.717 108.568L196.713 100.607V98.6814L212.717 106.642V108.568Z" fill="black"/>
<path d="M212.717 114.196L196.713 106.236V104.31L212.717 112.269V114.196Z" fill="black"/>
<path d="M212.717 119.825L196.713 111.864V109.938L212.717 117.9V119.825Z" fill="black"/>
<path d="M212.717 125.454L196.713 117.492V115.567L212.717 123.527V125.454Z" fill="black"/>
<path d="M212.717 131.082L196.713 123.122V121.196L212.717 129.156V131.082Z" fill="black"/>
<path d="M177.093 68.2501L174.286 69.5301V65.9689L177.093 64.6879V68.2501Z" fill="white"/>
<path d="M180.867 66.423L178.061 67.704V64.1407L180.867 62.8607V66.423Z" fill="white"/>
<path d="M185.013 68.9421L182.207 70.2226V66.6609L185.013 65.3799V68.9421Z" fill="white"/>
<path d="M188.348 62.9421L185.541 64.2226V60.6603L188.348 59.3793V62.9421Z" fill="white"/>
<path d="M181.457 79.0177L178.651 80.2987V76.7354L181.457 75.4554V79.0177Z" fill="white"/>
<path d="M190.201 82.3523L187.396 83.6312V80.07L190.201 78.79V82.3523Z" fill="white"/>
<path d="M186.645 87.909L183.839 89.189V85.6262L186.645 84.3462V87.909Z" fill="white"/>
<path d="M182.941 89.7603L180.134 91.0403V87.478L182.941 86.1959V89.7603Z" fill="white"/>
<path d="M177.093 105.44L174.286 106.721V103.158L177.093 101.877V105.44Z" fill="white"/>
<path d="M185.013 106.132L182.207 107.412V103.849L185.013 102.568V106.132Z" fill="white"/>
<path d="M188.348 100.132L185.541 101.414V97.8496L188.348 96.5686V100.132Z" fill="white"/>
<path d="M189.942 113.319L187.137 114.6V111.037L189.942 109.757V113.319Z" fill="white"/>
<path d="M177.377 124.226L174.572 125.505V121.943L177.377 120.662V124.226Z" fill="white"/>
<path d="M186.645 125.1L183.839 126.38V122.818L186.645 121.537V125.1Z" fill="white"/>
<path d="M182.941 126.949L180.134 128.23V124.668L182.941 123.387V126.949Z" fill="white"/>
<path d="M323.251 170.326H303.361V70.1354L312.728 65.8228L323.251 70.1354V170.326Z" fill="black"/>
<path d="M321.356 167.44H309.167L309.315 164.565H321.356V167.44Z" fill="white"/>
<path d="M321.356 160.975H309.499L309.641 158.253H321.356V160.975Z" fill="white"/>
<path d="M321.356 154.85H309.818L309.95 152.273H321.356V154.85Z" fill="white"/>
<path d="M321.356 149.046H310.116L310.242 146.598H321.356V149.046Z" fill="white"/>
<path d="M321.356 143.535H310.399L310.52 141.21H321.356V143.535Z" fill="white"/>
<path d="M321.356 138.295H310.67L310.784 136.084H321.356V138.295Z" fill="white"/>
<path d="M321.356 133.308H310.927L311.037 131.2H321.356V133.308Z" fill="white"/>
<path d="M321.356 128.555H311.173L311.277 126.545H321.356V128.555Z" fill="white"/>
<path d="M321.356 124.021H311.405L311.506 122.103H321.356V124.021Z" fill="white"/>
<path d="M321.356 119.69H311.63L311.724 117.857H321.356V119.69Z" fill="white"/>
<path d="M321.356 115.551H311.846L311.935 113.795H321.356V115.551Z" fill="white"/>
<path d="M321.357 111.59H312.048L312.134 109.907H321.357V111.59Z" fill="white"/>
<path d="M321.356 107.794H312.244L312.326 106.181H321.356V107.794Z" fill="white"/>
<path d="M321.356 104.155H312.431L312.51 102.609H321.356V104.155Z" fill="white"/>
<path d="M321.356 100.662H312.612L312.687 99.1776H321.356V100.662Z" fill="white"/>
<path d="M321.356 97.3075H312.785L312.859 95.8828H321.356V97.3075Z" fill="white"/>
<path d="M321.356 94.084H312.951L313.021 92.7129H321.356V94.084Z" fill="white"/>
<path d="M321.357 90.9837H313.111L313.18 89.6641H321.357V90.9837Z" fill="white"/>
<path d="M321.356 87.9982H313.265L313.329 86.7252H321.356V87.9982Z" fill="white"/>
<path d="M321.356 85.1214H313.415L313.477 83.8972H321.356V85.1214Z" fill="white"/>
<path opacity="0.3" d="M308.271 169.336H305.362V71.0948L308.271 71.0771V169.336Z" fill="#F7FFFF"/>
<path d="M338.679 170.326H323.593V93.0778L338.679 85.5358V170.326Z" fill="black"/>
<path d="M338.679 170.326H353.764V93.078L338.679 85.5359V170.326Z" fill="#686868"/>
<path d="M352.531 97.4607L341.003 91.726V90.3389L352.531 96.0735V97.4607Z" fill="black"/>
<path d="M352.531 101.515L341.003 95.7815V94.3927L352.531 100.128V101.515Z" fill="black"/>
<path d="M352.531 105.569L341.003 99.8347V98.4475L352.531 104.182V105.569Z" fill="black"/>
<path d="M352.531 109.624L341.003 103.889V102.502L352.531 108.235V109.624Z" fill="black"/>
<path d="M352.531 113.678L341.003 107.943V106.555L352.531 112.29V113.678Z" fill="black"/>
<path d="M352.531 117.732L341.003 111.997V110.609L352.531 116.344V117.732Z" fill="black"/>
<path d="M352.531 121.786L341.003 116.051V114.664L352.531 120.398V121.786Z" fill="black"/>
<path d="M352.531 125.84L341.003 120.106V118.719L352.531 124.452V125.84Z" fill="black"/>
<path d="M352.531 129.894L341.003 124.16V122.773L352.531 128.507V129.894Z" fill="black"/>
<path d="M352.531 133.949L341.003 128.214V126.827L352.531 132.562V133.949Z" fill="black"/>
<path d="M352.531 138.003L341.003 132.268V130.881L352.531 136.616V138.003Z" fill="black"/>
<path d="M352.531 142.058L341.003 136.324V134.936L352.531 140.67V142.058Z" fill="black"/>
<path d="M326.87 96.7978L324.848 97.7197V95.1544L326.87 94.2314V96.7978Z" fill="white"/>
<path d="M329.587 95.4818L327.566 96.4042V93.8373L329.587 92.9154V95.4818Z" fill="white"/>
<path d="M332.575 97.2962L330.553 98.2186V95.6528L332.575 94.7303V97.2962Z" fill="white"/>
<path d="M334.976 92.9739L332.955 93.8969V91.3305L334.976 90.4081V92.9739Z" fill="white"/>
<path d="M330.013 104.554L327.992 105.477V102.91L330.013 101.988V104.554Z" fill="white"/>
<path d="M336.311 106.955L334.291 107.877V105.312L336.311 104.39V106.955Z" fill="white"/>
<path d="M333.75 110.959L331.729 111.88V109.314L333.75 108.392V110.959Z" fill="white"/>
<path d="M331.082 112.292L329.061 113.214V110.649L331.082 109.724V112.292Z" fill="white"/>
<path d="M326.87 123.587L324.848 124.509V121.942L326.87 121.02V123.587Z" fill="white"/>
<path d="M332.575 124.086L330.553 125.007V122.441L332.575 121.518V124.086Z" fill="white"/>
<path d="M334.976 119.763L332.955 120.686V118.12L334.976 117.197V119.763Z" fill="white"/>
<path d="M336.125 129.263L334.105 130.185V127.618L336.125 126.697V129.263Z" fill="white"/>
<path d="M327.074 137.119L325.053 138.04V135.475L327.074 134.552V137.119Z" fill="white"/>
<path d="M333.75 137.748L331.729 138.67V136.104L333.75 135.182V137.748Z" fill="white"/>
<path d="M331.082 139.081L329.061 140.004V137.437L331.082 136.515V139.081Z" fill="white"/>
<path d="M110.774 66.4627V170.277H97.4911H83.3032V47.6351L110.774 66.4627Z" fill="black"/>
<path d="M85.562 58.5391L109.127 74.4873L109.129 73.285L85.5647 57.3385L85.562 58.5391Z" fill="white"/>
<path d="M85.5488 63.2538L98.0902 71.8502L98.0944 70.6474L85.552 62.051L85.5488 63.2538Z" fill="white"/>
<path d="M85.5342 67.9668L91.4849 72.2494L91.4875 71.0472L85.539 66.7645L85.5342 67.9668Z" fill="white"/>
<path d="M85.562 81.2866L109.127 97.2337L109.129 96.0314L85.5647 80.0844L85.562 81.2866Z" fill="white"/>
<path d="M85.5488 86.0012L98.0902 94.5949L98.0944 93.3942L85.5515 84.799L85.5488 86.0012Z" fill="white"/>
<path d="M85.5342 90.7132L91.4849 94.9953L91.4875 93.7936L85.539 89.5126L85.5342 90.7132Z" fill="white"/>
<path d="M85.562 104.032L109.127 119.98L109.129 118.777L85.5647 102.83L85.562 104.032Z" fill="white"/>
<path d="M85.5488 108.745L98.0902 117.342L98.0944 116.139L85.5515 107.545L85.5488 108.745Z" fill="white"/>
<path d="M85.5342 113.46L91.4849 117.742L91.4875 116.539L85.539 112.257L85.5342 113.46Z" fill="white"/>
<path opacity="0.24" d="M103.346 170.277H110.774V66.4628L103.548 61.5487L103.346 170.277Z" fill="white"/>
<path d="M73.4902 66.5131L73.3042 170.326L78.0746 170.302L83.3027 170.277V47.6351L73.4902 66.5131Z" fill="#686868"/>
<path d="M50.8784 169.853H72.23V91.4536L61.2082 79.7769H50.8784V169.853Z" fill="black"/>
<path d="M69.6253 102.584H53.9907V104.771H69.6253V102.584Z" fill="white"/>
<path d="M69.6253 106.765H53.9907V108.954H69.6253V106.765Z" fill="white"/>
<path d="M69.6253 110.947H53.9907V113.135H69.6253V110.947Z" fill="white"/>
<path d="M69.6253 115.129H53.9907V117.316H69.6253V115.129Z" fill="white"/>
<path d="M69.6253 119.31H53.9907V121.498H69.6253V119.31Z" fill="white"/>
<path d="M69.6253 123.493H53.9907V125.68H69.6253V123.493Z" fill="white"/>
<path d="M69.6253 127.674H53.9907V129.861H69.6253V127.674Z" fill="white"/>
<path d="M69.6253 131.854H53.9907V134.043H69.6253V131.854Z" fill="white"/>
<path d="M69.6253 136.037H53.9907V138.225H69.6253V136.037Z" fill="white"/>
<path d="M69.6253 140.218H53.9907V142.406H69.6253V140.218Z" fill="white"/>
<path d="M69.6253 144.4H53.9907V146.588H69.6253V144.4Z" fill="white"/>
<path d="M69.6253 148.581H53.9907V150.771H69.6253V148.581Z" fill="white"/>
<path d="M69.6253 152.762H53.9907V154.951H69.6253V152.762Z" fill="white"/>
<path d="M69.6253 156.944H53.9907V159.133H69.6253V156.944Z" fill="white"/>
<path d="M69.6253 161.127H53.9907V163.314H69.6253V161.127Z" fill="white"/>
<path d="M60.0994 88.0535H57.3208V90.8305H60.0994V88.0535Z" fill="white"/>
<path d="M64.9552 91.6967H62.1787V94.4737H64.9552V91.6967Z" fill="white"/>
<path d="M56.9095 96.0029H54.1309V98.7815H56.9095V96.0029Z" fill="white"/>
<path d="M50.8783 79.7769H48.2363V170.325H50.8783V79.7769Z" fill="#686868"/>
<path d="M127.226 170.326H142.312V93.078L127.226 85.5359V170.326Z" fill="black"/>
<path d="M127.226 170.326H112.142V93.0778L127.226 85.5358V170.326Z" fill="#686868"/>
<path d="M113.374 97.4607L124.902 91.726V90.3389L113.374 96.0735V97.4607Z" fill="black"/>
<path d="M113.374 101.515L124.902 95.7815V94.3927L113.374 100.128V101.515Z" fill="black"/>
<path d="M113.374 105.569L124.902 99.8347V98.4475L113.374 104.182V105.569Z" fill="black"/>
<path d="M113.374 109.624L124.902 103.889V102.503L113.374 108.235V109.624Z" fill="black"/>
<path d="M113.374 113.678L124.902 107.943V106.555L113.374 112.29V113.678Z" fill="black"/>
<path d="M113.374 117.732L124.902 111.997V110.609L113.374 116.344V117.732Z" fill="black"/>
<path d="M113.374 121.786L124.902 116.051V114.664L113.374 120.398V121.786Z" fill="black"/>
<path d="M113.374 125.84L124.902 120.106V118.719L113.374 124.452V125.84Z" fill="black"/>
<path d="M113.374 129.894L124.902 124.16V122.773L113.374 128.507V129.894Z" fill="black"/>
<path d="M113.374 133.949L124.902 128.214V126.827L113.374 132.562V133.949Z" fill="black"/>
<path d="M113.374 138.003L124.902 132.268V130.881L113.374 136.616V138.003Z" fill="black"/>
<path d="M113.374 142.058L124.902 136.324V134.936L113.374 140.67V142.058Z" fill="black"/>
<path d="M139.035 96.7978L141.056 97.7197V95.1544L139.035 94.2314V96.7978Z" fill="white"/>
<path d="M136.317 95.4818L138.339 96.4042V93.8373L136.317 92.9154V95.4818Z" fill="white"/>
<path d="M133.331 97.2962L135.352 98.2186V95.6528L133.331 94.7303V97.2962Z" fill="white"/>
<path d="M130.929 92.9739L132.95 93.8969V91.3305L130.929 90.4081V92.9739Z" fill="white"/>
<path d="M135.892 104.554L137.913 105.477V102.91L135.892 101.988V104.554Z" fill="white"/>
<path d="M129.594 106.955L131.614 107.877V105.312L129.594 104.39V106.955Z" fill="white"/>
<path d="M132.155 110.959L134.176 111.88V109.314L132.155 108.392V110.959Z" fill="white"/>
<path d="M134.823 112.292L136.845 113.214V110.649L134.823 109.724V112.292Z" fill="white"/>
<path d="M139.035 123.587L141.056 124.509V121.942L139.035 121.02V123.587Z" fill="white"/>
<path d="M133.331 124.086L135.352 125.007V122.441L133.331 121.518V124.086Z" fill="white"/>
<path d="M130.929 119.763L132.95 120.686V118.12L130.929 117.197V119.763Z" fill="white"/>
<path d="M129.78 129.263L131.8 130.185V127.618L129.78 126.697V129.263Z" fill="white"/>
<path d="M138.832 137.119L140.852 138.04V135.475L138.832 134.552V137.119Z" fill="white"/>
<path d="M132.156 137.748L134.176 138.67V136.104L132.156 135.182V137.748Z" fill="white"/>
<path d="M134.823 139.081L136.845 140.004V137.437L134.823 136.515V139.081Z" fill="white"/>
</g>
</g>
<g filter="url(#filter1_d_394_428)">
<path d="M45.8633 161.346C45.8633 161.346 60.7324 163.813 60.9107 163.706C61.089 163.599 63.0144 155.291 63.0144 155.291C63.0144 155.291 50.7188 153.08 50.5196 153.08C50.3205 153.08 47.6462 155.22 47.6105 155.362C47.5749 155.505 45.8633 161.346 45.8633 161.346Z" fill="#183658"/>
<path d="M91.2192 163.457C91.5758 163.492 109.583 163.106 109.583 163.106L108.228 158.964C108.228 158.964 105.732 155.189 104.412 155.258C103.093 155.327 95.2469 154.054 93.8927 154.994C92.5386 155.933 91.3263 155.184 90.6844 157.43C90.0426 159.677 89.542 159.928 90.0419 161.282C90.5418 162.636 91.2192 163.457 91.2192 163.457Z" fill="#183658"/>
<path d="M59.5022 162.841C59.5097 159.455 56.7717 156.704 53.3868 156.696C50.0019 156.689 47.2519 159.428 47.2444 162.814C47.237 166.2 49.975 168.951 53.3598 168.958C56.7447 168.966 59.4948 166.227 59.5022 162.841Z" fill="#1A1A1A"/>
<path d="M53.3717 167.09C55.7268 167.09 57.636 165.18 57.636 162.825C57.636 160.469 55.7268 158.559 53.3717 158.559C51.0166 158.559 49.1074 160.469 49.1074 162.825C49.1074 165.18 51.0166 167.09 53.3717 167.09Z" fill="#9E9DA2"/>
<path d="M53.3719 165.677C54.9469 165.677 56.2237 164.4 56.2237 162.824C56.2237 161.249 54.9469 159.972 53.3719 159.972C51.7968 159.972 50.52 161.249 50.52 162.824C50.52 164.4 51.7968 165.677 53.3719 165.677Z" fill="#D8D9DD"/>
<path d="M106.692 162.84C106.7 159.454 103.962 156.703 100.577 156.696C97.1919 156.688 94.4418 159.427 94.4344 162.813C94.4269 166.199 97.1649 168.95 100.55 168.958C103.935 168.965 106.685 166.226 106.692 162.84Z" fill="#1A1A1A"/>
<path d="M100.56 167.09C102.915 167.09 104.824 165.18 104.824 162.824C104.824 160.469 102.915 158.559 100.56 158.559C98.2046 158.559 96.2954 160.469 96.2954 162.824C96.2954 165.18 98.2046 167.09 100.56 167.09Z" fill="#9E9DA2"/>
<path d="M100.56 165.677C102.135 165.677 103.412 164.4 103.412 162.824C103.412 161.249 102.135 159.972 100.56 159.972C98.9848 159.972 97.708 161.249 97.708 162.824C97.708 164.4 98.9848 165.677 100.56 165.677Z" fill="#D8D9DD"/>
<path d="M114.631 156.99C114.112 153.573 112.438 152.855 107.483 151.864C102.015 150.771 95.0739 147.205 95.0739 147.205C95.0739 147.205 83.2357 141.405 80.3356 140.739C77.4354 140.074 70.304 140.264 64.3136 140.311C58.3232 140.359 54.805 142.023 51.7622 144.4C48.7194 146.777 43.4422 148.584 43.4422 148.584L42.4835 148.755C41.4977 148.931 40.7798 149.788 40.7798 150.79V159.268C40.7798 160.229 41.4264 161.068 42.3546 161.313L45.8193 162.229C46.1015 162.277 46.3639 162.077 46.395 161.792C46.7744 158.323 49.7729 155.687 53.3486 155.691C57.1508 155.696 60.2688 158.82 60.2664 162.622C60.2661 163.054 60.2261 163.477 60.15 163.887C60.0715 164.31 60.3967 164.701 60.8273 164.701H92.7139C93.3335 164.701 93.8149 164.156 93.7327 163.542C93.6932 163.247 93.6723 162.945 93.6714 162.639C93.6601 158.884 96.6969 155.77 100.452 155.693C104.344 155.613 107.524 158.744 107.524 162.618C107.524 162.874 107.51 163.128 107.483 163.377C107.406 164.083 107.952 164.701 108.662 164.701H113.247C114.081 164.701 114.757 164.025 114.757 163.191V158.75C114.757 158.161 114.719 157.572 114.631 156.99Z" fill="#F7CC7F"/>
<path d="M40.9814 151.793H44.7579C45.0814 151.793 45.3005 152.122 45.1755 152.421L44.7512 153.433C44.3468 154.398 43.4027 155.026 42.3565 155.026H40.9814C40.7123 155.026 40.4941 154.808 40.4941 154.539V152.28C40.4941 152.011 40.7123 151.793 40.9814 151.793Z" fill="#CF283C"/>
<path d="M108.623 153.362C110.703 153.68 113.098 155.65 113.098 155.65C113.671 156.265 113.198 157.264 112.359 157.211L108.304 156.955C107.462 156.901 106.743 156.325 106.509 155.515C106.114 154.153 106.45 153.029 108.623 153.362Z" fill="#F3FCFF"/>
<path d="M40.8013 159.584C40.5414 159.578 40.3571 159.839 40.453 160.081C40.7242 160.764 41.3059 161.302 42.0497 161.498L45.9319 162.524C46.2481 162.578 46.542 162.353 46.5769 162.034C46.6488 161.377 46.8057 160.747 47.0348 160.153C47.1125 159.952 46.9661 159.735 46.7505 159.729L40.8013 159.584Z" fill="#EAB054"/>
<path d="M107.556 161.182C107.261 161.175 107.034 161.434 107.072 161.726C107.113 162.051 107.135 162.383 107.135 162.719C107.135 163.004 107.12 163.285 107.089 163.561C107.004 164.345 107.61 165.031 108.398 165.031H113.485C114.411 165.031 115.16 164.281 115.16 163.356V162.039C115.16 161.666 114.863 161.36 114.489 161.351L107.556 161.182Z" fill="#EAB054"/>
<path opacity="0.5" d="M95.0824 149.168C95.0148 149.131 88.2747 145.433 83.8049 143.363C79.3796 141.313 74.4395 141.53 74.2266 141.541C73.659 141.528 61.8401 141.272 58.2066 142.404C54.5463 143.545 49.7792 148.742 49.578 148.963L49.5225 149.024L50.8044 155.039L50.9417 155.031C54.6698 154.821 57.5238 155.813 59.1942 157.901C60.4568 159.479 60.6128 161.145 60.6142 161.162L60.6265 161.305L74.0683 161.65V161.651L74.2235 161.654L74.3892 161.659V161.658L93.1187 162.023L93.1212 161.862C93.2147 155.775 95.139 149.419 95.1585 149.356L95.1967 149.231L95.0824 149.168ZM60.9168 160.991C60.8521 160.54 60.5687 159.112 59.4556 157.714C58.2559 156.207 55.8279 154.47 51.0611 154.704L49.8709 149.119C50.4227 148.526 54.9323 143.761 58.3021 142.711C61.6736 141.66 72.6243 141.831 74.0684 141.859V161.329L60.9168 160.991ZM92.8032 161.696L74.3892 161.337V141.856C75.2556 141.831 79.6785 141.805 83.6699 143.654C87.8107 145.572 93.9092 148.892 94.8144 149.387C94.546 150.305 92.9186 156.087 92.8032 161.696Z" fill="#FEB546"/>
<path opacity="0.5" d="M40.4531 160.081C40.7244 160.764 41.3061 161.302 42.0498 161.498L45.932 162.524C46.2482 162.578 46.5422 162.353 46.5771 162.034C46.6048 161.781 46.6455 161.531 46.6979 161.286L40.4531 160.081Z" fill="#FEB546"/>
<path opacity="0.5" d="M107.126 163.08C107.119 163.242 107.107 163.402 107.09 163.561C107.004 164.345 107.61 165.031 108.398 165.031H113.486C114.411 165.031 115.161 164.281 115.161 163.356V163.08H107.126Z" fill="#FEB546"/>
<path d="M93.9718 163.08C93.9708 162.732 93.9956 162.391 94.0443 162.056C94.1027 161.654 93.8032 161.29 93.3973 161.28L60.232 160.471C59.8702 160.462 59.6094 160.807 59.708 161.155C59.8801 161.763 59.9722 162.403 59.9718 163.062C59.9715 163.5 59.9312 163.928 59.8546 164.343C59.7745 164.777 60.1017 165.178 60.5427 165.178H92.9973C93.6339 165.178 94.1153 164.615 94.0323 163.984C93.9932 163.688 93.9727 163.386 93.9718 163.08Z" fill="#EAB054"/>
<path opacity="0.5" d="M93.9721 163.08C93.972 163.074 93.9723 163.068 93.9723 163.063H59.9721C59.9718 163.5 59.9315 163.928 59.8549 164.343C59.7748 164.777 60.1019 165.178 60.543 165.178H92.9975C93.6342 165.178 94.1155 164.615 94.0325 163.984C93.9935 163.688 93.973 163.386 93.9721 163.08Z" fill="#FEB546"/>
<path d="M57.0248 151.581H52.887C52.789 151.581 52.7095 151.501 52.7095 151.403V151.033C52.7095 150.935 52.7889 150.856 52.887 150.856H57.0248C57.1229 150.856 57.2023 150.935 57.2023 151.033V151.403C57.2023 151.501 57.1229 151.581 57.0248 151.581Z" fill="#EAB054"/>
<path d="M79.8368 151.943H75.699C75.601 151.943 75.5215 151.864 75.5215 151.766V151.396C75.5215 151.298 75.6009 151.218 75.699 151.218H79.8368C79.9348 151.218 80.0143 151.298 80.0143 151.396V151.766C80.0143 151.864 79.9348 151.943 79.8368 151.943Z" fill="#EAB054"/>
<path d="M53.501 149.737L71.8297 149.91C71.8297 149.91 72.9515 149.88 73.1041 148.824C73.2568 147.769 73.2439 143.247 73.2439 143.247C73.2439 143.247 73.1109 142.34 72.2414 142.328C71.7131 142.321 67.2848 142.004 62.9778 142.529C59.4644 142.957 56.2142 144.562 53.7501 147.027L52.4491 148.328C52.4491 148.328 51.5716 149.719 53.501 149.737Z" fill="#183658"/>
<path d="M75.2842 143.821V148.561C75.2842 149.177 75.7566 149.683 76.3542 149.707L90.7564 150.286C91.0871 150.3 91.4109 150.15 91.6004 149.871C91.8589 149.49 91.8888 148.863 90.5983 148.023C88.354 146.561 82.6442 143.4 80.5319 143.095C79.1874 142.9 77.4284 142.815 76.3273 142.78C75.7563 142.761 75.2842 143.233 75.2842 143.821Z" fill="#183658"/>
</g>
<g filter="url(#filter2_d_394_428)">
<path d="M69.8456 128.368L74.2306 137.072L78.8335 128.481C80.1963 125.33 78.0087 121.735 74.5786 121.592C74.5278 121.59 74.4769 121.589 74.4257 121.588C74.3746 121.588 74.3236 121.588 74.2728 121.589C70.8402 121.645 68.5627 125.183 69.8456 128.368ZM72.089 126.562C72.1048 125.306 73.1357 124.301 74.3914 124.317C75.6471 124.333 76.6522 125.363 76.6364 126.619C76.6206 127.875 75.5898 128.88 74.3341 128.864C73.0783 128.848 72.0732 127.817 72.089 126.562Z" fill="#F47458"/>
</g>
<g filter="url(#filter3_d_394_428)">
<path d="M162.626 166.291C163.25 166.207 163.347 166.244 165.768 166.07C167.153 165.97 167.893 166.045 169.889 166.254C171.886 166.464 173.085 166.29 174.647 165.678C176.209 165.067 176.749 165.256 177.835 165.256C178.922 165.256 178.602 165.507 180.423 165.423C181.106 165.391 181.587 165.164 183.272 165.372C186.306 165.747 188.263 166.226 187.754 166.391C185.443 167.139 184.451 167.104 182.622 166.402C180.954 165.761 178.419 165.899 176.867 166.471C173.707 167.635 173.347 166.456 171.164 166.846C168.982 167.235 159.5 166.715 162.626 166.291Z" fill="#BCBEC0"/>
<path d="M166.062 164.88C166.165 165.501 165.745 166.087 165.126 166.189C164.505 166.29 163.92 165.871 163.816 165.251C163.715 164.631 164.134 164.046 164.754 163.943C165.374 163.842 165.96 164.261 166.062 164.88Z" fill="#414042"/>
<path d="M165.674 164.948C165.727 165.269 165.509 165.573 165.189 165.625C164.868 165.677 164.565 165.46 164.512 165.141C164.46 164.819 164.677 164.516 164.997 164.464C165.317 164.411 165.62 164.627 165.674 164.948Z" fill="#343132"/>
<path d="M168.629 153.52L168.303 153.414L170.554 146.729L170.88 146.836L168.629 153.52Z" fill="#A7A9AC"/>
<path d="M170.56 153.869L170.232 153.764L172.485 147.08L172.811 147.185L170.56 153.869Z" fill="#A7A9AC"/>
<path d="M173.608 146.826C173.593 147.115 173.263 147.334 172.874 147.315L170.362 147.192C169.975 147.173 169.669 146.92 169.683 146.632C169.697 146.344 170.027 146.125 170.416 146.144L172.929 146.267C173.315 146.287 173.621 146.537 173.608 146.826Z" fill="#59595B"/>
<path d="M162.659 161.117C162.659 161.117 162.296 164.273 163.468 164.868C164.64 165.466 167.826 165.825 169.417 165.309C171.006 164.795 171.068 164.405 171.779 162.962C172.488 161.518 173.105 157.024 173.246 155.958C173.387 154.893 172.725 153.958 171.626 153.413C170.527 152.869 167.646 152.46 166.924 152.484C166.202 152.508 164.559 153.094 163.976 155.307C163.394 157.52 162.919 159.999 162.659 161.117Z" fill="#663700"/>
<path opacity="0.4" d="M171.626 153.414C170.528 152.87 167.646 152.46 166.924 152.484C166.843 152.487 166.748 152.498 166.645 152.517C168.364 152.409 170.008 153.554 170.39 154.345C170.773 155.135 170.333 160.136 169.309 163.116C168.463 165.573 166.114 165.491 165.314 165.385C166.7 165.609 168.39 165.643 169.417 165.31C171.006 164.795 171.069 164.406 171.779 162.962C172.488 161.519 173.106 157.025 173.246 155.959C173.387 154.893 172.726 153.958 171.626 153.414Z" fill="#663700"/>
<path d="M171.263 165.256C171.364 165.874 170.945 166.46 170.324 166.563C169.704 166.665 169.119 166.246 169.018 165.625C168.915 165.004 169.335 164.42 169.955 164.318C170.575 164.216 171.161 164.634 171.263 165.256Z" fill="#414042"/>
<path d="M170.871 165.322C170.925 165.643 170.708 165.946 170.388 165.999C170.068 166.051 169.766 165.835 169.712 165.514C169.659 165.193 169.875 164.89 170.197 164.839C170.517 164.786 170.819 165.002 170.871 165.322Z" fill="#343132"/>
<path d="M169.584 155.398C169.57 155.466 169.495 155.509 169.419 155.491L165.137 154.61C165.061 154.596 165.01 154.527 165.025 154.459C165.039 154.392 165.111 154.35 165.188 154.366L169.471 155.248C169.547 155.265 169.597 155.333 169.584 155.398Z" fill="#E9814F"/>
<path d="M169.382 156.174C169.369 156.24 169.296 156.283 169.22 156.268L164.938 155.385C164.861 155.369 164.81 155.301 164.824 155.234C164.836 155.168 164.91 155.125 164.988 155.141L169.269 156.021C169.347 156.038 169.396 156.106 169.382 156.174Z" fill="#E9814F"/>
<path d="M169.148 156.936C169.133 157.003 169.059 157.044 168.983 157.029L164.702 156.147C164.626 156.13 164.574 156.063 164.588 155.995C164.602 155.929 164.675 155.887 164.751 155.902L169.034 156.785C169.111 156.801 169.163 156.869 169.148 156.936Z" fill="#E9814F"/>
<path d="M182.206 161.741L183.806 161.751C183.806 161.751 183.783 163.191 183.759 163.471C183.736 163.751 182.907 164.397 182.464 164.085L182.206 161.741Z" fill="#FCB378"/>
<path opacity="0.4" d="M183.806 161.751C183.806 161.751 183.797 162.376 183.783 162.881C183.783 162.881 182.57 162.849 182.376 163.292L182.206 161.741L183.806 161.751Z" fill="#FCB378"/>
<path d="M182.417 163.66C182.417 163.66 182.417 163.927 182.678 163.883C183.057 163.82 183.432 163.149 184.02 163.265C184.609 163.38 185.384 164.361 185.714 164.706C186.042 165.05 186.53 165.359 186.477 165.85C186.424 166.341 184.664 166.644 184.016 166.372C183.367 166.1 182.576 165.491 182.435 165.457C182.293 165.422 182.221 164.523 182.191 164.155C182.162 163.785 182.417 163.66 182.417 163.66Z" fill="#323232"/>
<path d="M184.301 165.111C184.258 165.117 184.214 165.1 184.189 165.062C184.155 165.011 184.171 164.941 184.222 164.908C184.24 164.897 184.682 164.615 185.367 164.522C185.428 164.513 185.483 164.556 185.492 164.617C185.5 164.677 185.455 164.731 185.397 164.741C184.758 164.826 184.347 165.092 184.343 165.095C184.33 165.103 184.315 165.108 184.301 165.111Z" fill="white"/>
<path d="M183.983 164.692C183.94 164.7 183.894 164.681 183.87 164.64C183.838 164.588 183.855 164.52 183.908 164.488C183.927 164.477 184.377 164.212 185.067 164.145C185.128 164.14 185.181 164.184 185.188 164.245C185.194 164.305 185.159 164.361 185.088 164.366C184.446 164.428 184.026 164.676 184.023 164.678C184.01 164.686 183.997 164.69 183.983 164.692Z" fill="white"/>
<path d="M183.643 164.384C183.6 164.392 183.555 164.373 183.531 164.334C183.499 164.283 183.514 164.214 183.565 164.181C183.584 164.169 184.023 163.892 184.715 163.81C184.776 163.802 184.831 163.846 184.839 163.906C184.846 163.968 184.805 164.027 184.742 164.03C184.1 164.109 183.688 164.366 183.684 164.369C183.671 164.378 183.656 164.382 183.643 164.384Z" fill="white"/>
<path opacity="0.4" d="M182.416 163.66C182.416 163.66 182.416 163.927 182.678 163.883C182.989 163.831 183.297 163.371 183.725 163.271C183.434 163.378 183.084 163.863 182.808 164.017C182.478 164.197 182.577 164.428 182.593 164.724C182.609 165.019 182.808 165.086 183.301 165.48C183.795 165.875 184.485 166.019 185.571 165.809C186.374 165.654 186.378 165.439 186.326 165.338C186.432 165.489 186.498 165.654 186.478 165.85C186.424 166.341 184.664 166.644 184.016 166.372C183.367 166.1 182.576 165.491 182.435 165.457C182.293 165.421 182.221 164.522 182.191 164.155C182.161 163.785 182.416 163.66 182.416 163.66Z" fill="#323232"/>
<path d="M182.305 165.133C182.305 165.133 182.435 165.208 182.771 165.314C183.197 165.446 183.361 166.008 184.381 166.019C185.402 166.029 185.907 165.965 186.197 165.826C186.488 165.687 186.488 165.687 186.488 165.687C186.488 165.687 186.826 166.146 186.636 166.37C186.444 166.594 185.303 166.982 184.082 166.651C183.393 166.464 183.116 166.143 182.809 166.076C182.502 166.007 182.16 165.808 182.305 165.133Z" fill="#E6E7E8"/>
<path d="M177.389 161.883L175.788 161.893C175.788 161.893 175.812 163.333 175.836 163.613C175.859 163.893 176.689 164.539 177.13 164.227L177.389 161.883Z" fill="#FCB378"/>
<path opacity="0.4" d="M175.787 161.893C175.787 161.893 175.797 162.517 175.811 163.022C175.811 163.022 177.022 162.989 177.217 163.433L177.388 161.883L175.787 161.893Z" fill="#FCB378"/>
<path d="M177.177 163.801C177.177 163.801 177.177 164.068 176.915 164.024C176.537 163.961 176.161 163.291 175.572 163.407C174.984 163.521 174.21 164.502 173.881 164.847C173.551 165.191 173.063 165.5 173.116 165.992C173.169 166.482 174.93 166.785 175.577 166.513C176.226 166.241 177.017 165.632 177.159 165.597C177.3 165.562 177.372 164.664 177.402 164.295C177.432 163.926 177.177 163.801 177.177 163.801Z" fill="#323232"/>
<path d="M175.292 165.252C175.335 165.258 175.379 165.241 175.404 165.203C175.437 165.152 175.422 165.082 175.371 165.049C175.353 165.038 174.91 164.756 174.226 164.664C174.165 164.654 174.11 164.697 174.102 164.759C174.093 164.819 174.138 164.872 174.197 164.883C174.835 164.967 175.246 165.233 175.25 165.236C175.263 165.244 175.278 165.25 175.292 165.252Z" fill="white"/>
<path d="M175.61 164.833C175.654 164.841 175.699 164.822 175.723 164.781C175.755 164.729 175.738 164.661 175.686 164.63C175.667 164.618 175.217 164.353 174.527 164.286C174.466 164.28 174.411 164.326 174.405 164.386C174.399 164.446 174.436 164.502 174.504 164.507C175.147 164.569 175.567 164.817 175.571 164.819C175.583 164.827 175.597 164.832 175.61 164.833Z" fill="white"/>
<path d="M175.951 164.526C175.993 164.533 176.038 164.514 176.063 164.475C176.095 164.424 176.081 164.354 176.029 164.322C176.01 164.31 175.57 164.032 174.878 163.951C174.818 163.943 174.762 163.987 174.755 164.047C174.747 164.109 174.788 164.168 174.852 164.171C175.493 164.249 175.905 164.507 175.909 164.509C175.923 164.518 175.937 164.522 175.951 164.526Z" fill="white"/>
<path opacity="0.4" d="M177.177 163.802C177.177 163.802 177.177 164.068 176.915 164.024C176.604 163.973 176.295 163.512 175.869 163.412C176.158 163.519 176.508 164.004 176.785 164.158C177.115 164.339 177.017 164.569 176.999 164.865C176.983 165.161 176.785 165.227 176.292 165.622C175.799 166.017 175.108 166.161 174.021 165.95C173.218 165.795 173.214 165.581 173.266 165.479C173.161 165.63 173.094 165.796 173.116 165.992C173.169 166.482 174.93 166.786 175.577 166.513C176.226 166.241 177.017 165.633 177.158 165.598C177.3 165.563 177.372 164.664 177.402 164.296C177.432 163.926 177.177 163.802 177.177 163.802Z" fill="#323232"/>
<path d="M177.289 165.274C177.289 165.274 177.159 165.349 176.822 165.455C176.396 165.587 176.233 166.149 175.213 166.16C174.19 166.169 173.687 166.106 173.396 165.966C173.105 165.828 173.105 165.828 173.105 165.828C173.105 165.828 172.767 166.287 172.958 166.512C173.148 166.735 174.289 167.123 175.51 166.792C176.2 166.606 176.477 166.284 176.784 166.217C177.091 166.148 177.434 165.949 177.289 165.274Z" fill="#E6E7E8"/>
<path d="M176.208 144.655C176.208 144.655 175.649 153.317 175.578 155.852C175.506 158.388 175.295 162.473 175.295 162.473L177.831 162.684C177.831 162.684 178.746 155.429 179.239 152.965C179.731 150.5 180.295 149.303 180.295 149.303C180.295 149.303 181.741 162.503 181.704 162.614C181.633 162.825 183.966 162.697 184.39 162.486L183.746 149.866L183.179 144.162C183.18 144.162 179.026 145.219 176.208 144.655Z" fill="#67652F"/>
<path opacity="0.2" d="M179.239 152.965C178.746 155.429 177.831 162.684 177.831 162.684L175.295 162.473C175.295 162.473 175.506 158.388 175.578 155.853C175.649 153.317 176.208 144.655 176.208 144.655C177.422 144.898 178.882 144.839 180.152 144.695C180.653 144.727 181 144.752 181.035 144.76C181.176 144.795 183.499 144.937 182.196 145.919C180.893 146.901 177.126 146.556 176.738 146.873C176.351 147.191 176.14 151.099 175.859 155.29C175.577 159.481 176.351 162.05 177.021 162.015C177.69 161.98 177.619 160.853 177.971 158.388C178.323 155.923 179.203 150.324 179.45 149.725C179.697 149.126 178.605 148.634 178.605 148.634C178.605 148.634 179.203 148.88 180.224 148.81C181.245 148.74 181.422 148.423 181.422 148.423C181.422 148.423 181.069 149.057 181.035 149.655C181 150.253 181.633 157.191 181.845 159.339C182.056 161.486 182.865 162.296 183.605 162.261C184.342 162.227 184.337 161.454 184.337 161.449L184.39 162.486C183.967 162.697 181.634 162.826 181.704 162.614C181.742 162.504 180.296 149.304 180.296 149.304C180.296 149.304 179.731 150.5 179.239 152.965Z" fill="#67652F"/>
<path d="M175.22 135.856C175.22 135.856 173.609 134.997 173.251 135.284C172.892 135.57 171.836 138.808 171.656 139.953C171.477 141.099 170.99 144.973 170.915 145.305C170.915 145.305 170.627 146.167 170.581 146.424C170.536 146.682 170.43 147.333 170.612 147.409C170.794 147.484 170.914 147.439 171.081 147.454C171.247 147.469 171.383 147.438 171.489 147.529C171.596 147.62 171.867 147.651 172.034 147.545C172.201 147.438 172.458 147.408 172.609 147.393C172.76 147.377 172.896 147.166 172.942 146.878C172.987 146.591 172.972 146.167 172.896 145.88C172.82 145.593 172.655 145.048 172.655 145.048C172.655 145.048 173.126 140.984 173.445 140.302C173.762 139.621 174.954 136.878 175.22 135.856Z" fill="#FDCBA3"/>
<path d="M191.924 135.218C191.924 135.218 192.05 135.033 192.156 134.584C192.262 134.134 191.999 134.07 191.866 134.214C191.731 134.358 191.268 135.456 191.924 135.218Z" fill="#FDCBA3"/>
<path d="M188.784 135.791C188.677 135.942 188.729 136.132 188.899 136.209L190.206 136.81C190.373 136.888 190.599 136.825 190.704 136.673L192.877 133.536C192.984 133.383 192.932 133.194 192.762 133.117L191.457 132.515C191.287 132.438 191.063 132.499 190.957 132.653L188.784 135.791Z" fill="#6D6E71"/>
<path d="M184.794 135.493C184.794 135.493 186.524 138.409 186.617 138.588C186.709 138.766 189.327 136.298 189.327 136.298C189.327 136.298 189.106 136.198 188.991 136.051C188.872 135.898 188.79 135.668 188.907 135.448C189.023 135.227 189.241 135.318 189.318 135.12C189.539 134.547 189.668 134.886 189.862 134.569C190.134 134.126 190.121 134.324 190.35 134.201C190.443 134.153 190.539 133.955 190.633 133.931C190.77 133.896 190.906 133.91 191.04 134.026C191.267 134.221 191.578 134.489 191.748 135.006C191.919 135.522 192.152 135.825 191.407 136.488C190.662 137.152 190.289 137.127 190.068 137.355C189.847 137.582 187.868 140.273 187.046 140.861C186.495 141.256 185.78 141.527 184.925 140.346C184.069 139.165 182.86 136.754 182.86 136.754L184.794 135.493Z" fill="#FDCBA3"/>
<path d="M183.487 140.431C183.38 142.321 184.122 145.084 184.122 145.084C184.122 145.084 179.333 147.964 175.389 145.254C175.389 145.254 175.952 142.678 175.881 140.828C175.81 138.977 175.506 137.028 175.506 137.028L174.826 138.008L171.969 136.751C171.969 136.751 173.106 134.662 174.514 133.472C175.923 132.283 178.032 132.019 178.032 132.019L180.804 131.949C180.804 131.949 182.062 132.069 182.978 132.73C183.894 133.391 185.458 135.476 185.458 135.476L183.205 136.995C183.206 136.995 183.555 139.242 183.487 140.431Z" fill="#D26C00"/>
<path opacity="0.3" d="M175.389 145.254C175.389 145.254 175.952 142.677 175.881 140.828C175.81 138.977 175.506 137.028 175.506 137.028L174.826 138.008L171.969 136.751C171.969 136.751 172.103 136.506 172.331 136.141C172.185 136.959 174.043 137.441 174.844 137.024C175.644 136.607 175.644 135.217 175.644 135.217C175.644 135.217 176.372 137.234 176.372 138.901C176.372 140.57 175.754 144.881 177.027 145.508C178.3 146.133 182.557 145.438 183.066 144.846C183.575 144.254 182.849 143.351 182.775 142.065C182.701 140.778 182.848 139.91 183.03 138.797C183.211 137.684 182.193 134.834 182.193 134.834C182.629 135.252 183.211 136.434 183.211 136.434C183.211 136.434 184.376 135.704 184.703 135.426C185.03 135.147 183.488 133.176 183.475 133.161C184.369 134.025 185.458 135.476 185.458 135.476L183.205 136.995C183.205 136.995 183.554 139.242 183.486 140.431C183.379 142.321 184.122 145.084 184.122 145.084C184.122 145.084 179.333 147.964 175.389 145.254Z" fill="#D26C00"/>
<path d="M178.211 129.889C178.211 129.889 178.346 131.717 177.924 132.434C177.924 132.434 179.415 134.246 181.023 132.336C181.023 132.336 180.385 132.016 180.81 130.922C180.81 130.922 179.025 130.95 178.211 129.889Z" fill="#FDCBA3"/>
<path opacity="0.3" d="M180.809 130.922C180.773 131.014 180.754 131.095 180.733 131.177C180.531 131.28 180.2 131.404 180.024 131.404C179.441 131.404 178.748 130.836 178.219 130.046C178.215 129.956 178.21 129.89 178.21 129.89C179.024 130.95 180.809 130.922 180.809 130.922Z" fill="#FDCBA3"/>
<path d="M177.231 127.347C177.352 127.313 177.492 127.362 177.619 127.462C177.697 125.584 178.78 124.053 180.118 124.091C182.215 124.15 182.498 125.664 182.498 127.641C182.498 129.617 181.039 131.249 180.118 131.249C179.331 131.249 178.101 130.244 177.757 128.852C177.501 128.904 177.181 128.633 177.036 128.228C176.884 127.813 176.972 127.417 177.231 127.347Z" fill="#FDCBA3"/>
<path d="M179.469 127.918C179.467 128.102 179.541 128.25 179.633 128.246C179.724 128.244 179.802 128.093 179.804 127.91C179.805 127.723 179.73 127.578 179.637 127.581C179.546 127.583 179.47 127.735 179.469 127.918Z" fill="#572700"/>
<path d="M179.074 127.239C179.082 127.239 179.09 127.237 179.097 127.233C179.614 126.974 179.897 127.212 179.9 127.214C179.922 127.233 179.957 127.23 179.976 127.208C179.996 127.186 179.994 127.151 179.973 127.131C179.958 127.119 179.63 126.847 179.05 127.135C179.024 127.149 179.012 127.183 179.026 127.21C179.037 127.228 179.055 127.239 179.074 127.239Z" fill="#572700"/>
<path d="M181.326 127.875C181.324 128.033 181.393 128.159 181.479 128.156C181.566 128.153 181.636 128.024 181.638 127.867C181.638 127.71 181.569 127.586 181.482 127.586C181.397 127.588 181.326 127.717 181.326 127.875Z" fill="#572700"/>
<path d="M181.126 127.208C181.135 127.208 181.142 127.206 181.15 127.203C181.666 126.942 181.95 127.178 181.954 127.18C181.975 127.199 182.008 127.197 182.029 127.175C182.049 127.151 182.049 127.119 182.024 127.099C182.01 127.086 181.683 126.814 181.103 127.105C181.076 127.119 181.066 127.152 181.079 127.178C181.089 127.198 181.107 127.209 181.126 127.208Z" fill="#572700"/>
<path d="M181.258 129.166C181.258 129.166 180.391 129.358 179.682 129.102C179.682 129.102 179.586 129.847 180.409 129.948C180.968 130.016 181.09 129.745 181.258 129.166Z" fill="white"/>
<path d="M180.548 128.246C180.548 128.246 180.559 128.433 180.703 128.487C180.893 128.561 180.895 128.715 180.821 128.792C180.739 128.88 180.567 128.857 180.567 128.857C180.567 128.857 180.87 128.966 180.947 128.716C181.025 128.465 180.642 128.561 180.548 128.246Z" fill="#FBB480"/>
<path d="M177.619 127.462C177.619 127.462 178.419 127.106 178.356 126.058C178.327 125.566 179.023 125.709 179.881 126.185C180.343 126.442 182.22 126.797 182.008 126.662C181.472 126.315 181.188 126.335 180.992 126.121C180.992 126.121 181.775 126.303 182.93 126.979C182.93 126.979 183.533 124.628 181.596 123.644C179.585 122.622 178.18 123.688 178.18 123.688C178.18 123.688 178.081 123.332 178.983 123C178.983 123 177.778 123.074 177.566 124.148C177.566 124.148 177.014 124.039 176.727 124.979C176.439 125.919 176.724 126.708 177.231 127.347C177.231 127.347 177.404 127.207 177.619 127.462Z" fill="#572700"/>
</g>
<g filter="url(#filter4_d_394_428)">
<path d="M221.297 166.74C221.297 166.883 216.347 167 210.24 167C204.133 167 199.182 166.883 199.182 166.74C199.182 166.596 204.133 166.479 210.24 166.479C216.347 166.479 221.297 166.596 221.297 166.74Z" fill="#BCBEC0"/>
<path d="M220.131 163.775C220.131 164.957 219.164 165.924 217.982 165.924L202.112 165.924C200.93 165.924 199.963 164.957 199.963 163.775V130.299C199.963 129.117 200.93 128.15 202.112 128.15H217.982C219.164 128.15 220.131 129.117 220.131 130.3V163.775Z" fill="#E6E7E8"/>
<path d="M217.921 127L202.173 127C200.427 127 199 128.428 199 130.173V163.598C199 165.342 200.427 166.77 202.173 166.77H217.921C219.666 166.77 221.094 165.342 221.094 163.598V130.173C221.094 128.428 219.666 127.001 217.921 127ZM220.131 163.775C220.131 164.957 219.164 165.924 217.982 165.924L202.112 165.924C200.93 165.924 199.963 164.957 199.963 163.775V130.299C199.963 129.117 200.93 128.15 202.112 128.15H204.209V128.632C204.209 129.492 204.913 130.196 205.773 130.196H214.32C215.181 130.196 215.885 129.492 215.885 128.632V128.15H217.982C219.164 128.15 220.131 129.117 220.131 130.3V163.775H220.131Z" fill="black"/>
<path d="M219.985 127.772C220.465 128.328 220.758 129.05 220.758 129.837V163.262C220.758 165.006 219.33 166.434 217.585 166.434H201.836C201.049 166.434 200.329 166.142 199.772 165.663C200.355 166.339 201.215 166.77 202.172 166.77H217.921C219.666 166.77 221.094 165.342 221.094 163.597V130.173C221.094 129.215 220.662 128.355 219.985 127.772Z" fill="#414042"/>
<path d="M202.285 166.097H218.155C219.337 166.097 220.304 165.13 220.304 163.948V130.472C220.304 129.837 220.024 129.267 219.582 128.872C219.922 129.252 220.131 129.752 220.131 130.299V163.775C220.131 164.957 219.164 165.924 217.982 165.924L202.112 165.924C201.565 165.924 201.065 165.715 200.685 165.375C201.079 165.816 201.65 166.097 202.285 166.097Z" fill="#58595B"/>
<path d="M199.173 163.77V130.346C199.173 128.601 200.6 127.173 202.345 127.173L218.094 127.173C218.923 127.173 219.677 127.498 220.244 128.023C219.664 127.397 218.837 127.001 217.921 127.001L202.173 127C200.427 127 199 128.428 199 130.173V163.598C199 164.514 199.396 165.34 200.022 165.921C199.498 165.354 199.173 164.599 199.173 163.77Z" fill="#58595B"/>
<mask id="mask0_394_428" style="mask-type:luminance" maskUnits="userSpaceOnUse" x="199" y="128" width="22" height="38">
<path d="M220.131 163.775C220.131 164.957 219.164 165.924 217.982 165.924L202.112 165.924C200.93 165.924 199.963 164.957 199.963 163.775V130.299C199.963 129.117 200.93 128.15 202.112 128.15H204.209V128.632C204.209 129.492 204.913 130.196 205.774 130.196H214.321C215.181 130.196 215.886 129.492 215.886 128.632V128.15H217.982C219.164 128.15 220.131 129.117 220.131 130.3V163.775H220.131Z" fill="white"/>
</mask>
<g mask="url(#mask0_394_428)">
<path d="M217.758 132.474L231.956 130.735L230.592 130.426H212.108L217.758 132.474Z" fill="#C8E0AE"/>
<path d="M213.138 139.642L220.66 138.248L237.701 148.987L234.364 150.468L225.313 143.227L213.138 139.642Z" fill="#62DAAE"/>
<path d="M193.66 133.267L195.348 131.123C195.348 131.123 204.856 130.605 206.7 130.873C208.588 131.147 209.067 130.85 210.034 130.873C211.004 130.896 212.449 131.471 211.684 131.943C210.753 132.5 209.903 132.505 208.393 132.326C206.905 132.15 206.19 131.952 204.999 132.301C201.884 133.274 194.302 133.214 193.66 133.267Z" fill="#A4D1FF"/>
<path d="M213.457 149.283L211.671 148.78L212.469 147.808L214.219 148.287L213.457 149.283Z" fill="#BCBEC0"/>
<path d="M210.854 152.695L208.956 152.105L209.89 150.967L211.749 151.526L210.854 152.695Z" fill="#BCBEC0"/>
<path d="M217.328 150.257L215.441 149.757L216.147 148.729L217.995 149.204L217.328 150.257Z" fill="#BCBEC0"/>
<path d="M216.233 152.022L214.28 151.48L215.046 150.364L216.957 150.879L216.233 152.022Z" fill="#BCBEC0"/>
<path d="M208.775 149.747L207.013 149.259L207.921 148.255L209.649 148.719L208.775 149.747Z" fill="#BCBEC0"/>
<path d="M214.457 142.898L212.695 142.539L213.602 141.536L215.33 142.026L214.457 142.898Z" fill="#BCBEC0"/>
<path d="M201.135 148.119L199.803 147.384L200.97 146.572L202.295 147.275L201.135 148.119Z" fill="#BCBEC0"/>
<path d="M204.482 143.083L203.221 142.637L206.227 141.278L207.216 141.583L204.482 143.083Z" fill="#BCBEC0"/>
<path d="M215.048 153.874L213.028 153.283L213.859 152.074L215.834 152.632L215.048 153.874Z" fill="#BCBEC0"/>
<path d="M210.328 133.375L213.083 133.515L212.743 133.788L209.906 133.627L210.328 133.375Z" fill="#BCBEC0"/>
<path d="M205.859 133.139L208.575 133.278L208.19 133.547L205.396 133.389L205.859 133.139Z" fill="#BCBEC0"/>
<path d="M198.228 139.206L204.347 138.414L204.846 139.309L198.277 140.493L198.228 139.206Z" fill="#BCBEC0"/>
<path d="M212.95 137.245L217.411 136.444L217.954 136.91L213.283 137.897L212.95 137.245Z" fill="#BCBEC0"/>
<path d="M212.208 134.863L213.021 134.144L206.006 133.867L196.275 134.211L196.118 135.491L203.016 136.03L208.027 134.86L212.208 134.863Z" fill="#62DAAE"/>
<path d="M209.337 145.931L212.245 143.357L219.092 144.674L220.252 142.931L224.481 143.936L227.379 146.296L221.575 149.08L209.337 145.931Z" fill="#BCBEC0"/>
<path d="M219.892 132.907C219.99 132.907 223.501 132.459 229.979 131.622L231.875 132.147L229.608 132.496H229.607L220.12 133.954C219.972 133.977 219.884 134.063 219.923 134.148C219.955 134.219 220.067 134.266 220.19 134.266C220.214 134.266 220.238 134.265 220.263 134.26L223.043 133.827L224.753 135.251L219.239 135.41C219.079 135.415 218.951 135.497 218.954 135.595C218.956 135.691 219.083 135.766 219.239 135.766C219.245 135.766 219.25 135.766 219.254 135.765L232.795 135.37L236.819 138.008C236.917 138.072 237.04 138.107 237.147 138.107C237.206 138.107 237.259 138.096 237.299 138.074C237.411 138.012 237.379 137.881 237.228 137.784L233.453 135.35L236.862 135.251L241.727 138.353C241.838 138.424 241.978 138.464 242.09 138.464C242.144 138.464 242.192 138.455 242.229 138.436C242.34 138.377 242.297 138.245 242.133 138.143L237.496 135.232L242.697 135.108C242.852 135.103 242.915 135.023 242.836 134.929C242.759 134.836 242.571 134.763 242.418 134.768L230.091 135.097L229.426 134.682L245.155 133.267C245.295 133.254 245.338 133.176 245.254 133.092C245.169 133.009 244.989 132.952 244.85 132.964L233.449 133.977L230.284 132.7L245.191 130.287C245.31 130.269 245.336 130.198 245.249 130.13C245.163 130.062 244.997 130.023 244.879 130.041L232.504 132.051L230.632 131.538C231.736 131.395 239.104 130.208 240.355 130.046C240.476 130.031 240.515 129.965 240.443 129.899C240.37 129.834 240.215 129.795 240.095 129.81C238.962 129.955 231.354 131.17 229.852 131.362C229.851 131.362 229.85 131.362 229.849 131.362C225.399 131.93 220.17 132.595 219.867 132.624C219.736 132.631 219.633 132.691 219.631 132.764C219.63 132.843 219.746 132.907 219.892 132.907ZM225.41 135.232L223.584 133.743L226.519 133.286L229.409 135.117L225.41 135.232ZM232.773 134.038L228.945 134.384L227.051 133.204L229.718 132.788L232.773 134.038Z" fill="white"/>
<path d="M248.385 144.294C248.169 144.14 247.888 144.077 247.754 144.152L245.187 145.603L238.707 141.958L243.01 142.651C243.041 142.656 243.071 142.658 243.099 142.658C243.181 142.658 243.248 142.638 243.287 142.598C243.338 142.545 243.336 142.465 243.279 142.38L240.563 138.319C240.482 138.2 240.275 138.103 240.097 138.102C240.095 138.102 240.093 138.102 240.092 138.102C239.917 138.102 239.836 138.196 239.913 138.314L242.317 142.028L240.599 141.756L238.764 139.306C238.689 139.205 238.53 139.123 238.374 139.103L233.727 138.533C233.726 138.533 233.725 138.533 233.724 138.533L228.367 137.875L227.329 136.72C227.24 136.622 227.052 136.575 226.905 136.614C226.759 136.654 226.71 136.767 226.797 136.867L229.924 140.44C229.99 140.515 230.097 140.57 230.212 140.589L237.337 141.736L244.637 145.913L234.566 151.602L224.742 143.734C224.697 143.698 224.644 143.67 224.585 143.653L209.873 139.279C209.719 139.233 209.504 139.292 209.395 139.411C209.285 139.53 209.322 139.667 209.478 139.714L211.967 140.467L207.113 144.344L205.235 143.778L209.385 141.416C209.489 141.356 209.557 141.27 209.568 141.185C209.577 141.102 209.528 141.029 209.437 140.993L206.758 139.92C206.615 139.863 206.389 139.912 206.254 140.032C206.117 140.153 206.122 140.299 206.267 140.359L208.562 141.297L204.592 143.517C204.566 143.532 204.543 143.547 204.521 143.564L201.436 142.636C201.349 142.609 201.231 142.618 201.114 142.661L195.428 144.656L196.307 142.37C196.364 142.224 196.233 142.132 196.016 142.165C195.799 142.198 195.575 142.342 195.515 142.49L192.347 150.268C192.345 150.271 192.343 150.274 192.341 150.277C192.316 150.321 192.302 150.363 192.292 150.403L182.182 175.228C181.975 175.734 182.084 176.083 182.419 176.083C182.472 176.083 182.53 176.075 182.594 176.057C183.06 175.923 183.621 175.338 183.843 174.759L193.127 150.635L201.159 149.817C201.298 149.809 201.45 149.745 201.574 149.644L212.587 140.655L219.879 142.863L218.897 144.311L212.075 143.011C211.923 142.982 211.744 143.037 211.634 143.146L202.339 152.337C202.212 152.463 202.137 152.617 202.135 152.755C202.133 152.893 202.208 152.998 202.335 153.039L214.755 157.032C214.79 157.073 214.829 157.109 214.878 157.136C214.947 157.174 215.022 157.193 215.099 157.193C215.136 157.193 215.174 157.187 215.21 157.178L222.657 159.572C222.709 159.589 222.759 159.597 222.81 159.597C222.895 159.597 222.977 159.575 223.052 159.532L226.17 157.719C226.202 157.706 226.231 157.688 226.26 157.667L229.151 155.987C229.196 155.97 229.237 155.947 229.274 155.915L234.716 152.752L249.512 164.887C249.725 165.062 249.942 165.151 250.112 165.151C250.258 165.151 250.369 165.086 250.415 164.954C250.515 164.669 250.275 164.185 249.885 163.872L235.461 152.32L248.54 144.717C248.674 144.64 248.603 144.45 248.385 144.294ZM239.78 141.626L235.778 140.991L234.305 139.032L238.252 139.524L239.78 141.626ZM233.029 140.554C232.526 139.948 231.868 139.133 231.548 138.689L233.563 138.94L234.966 140.862L233.029 140.554ZM228.789 138.346L230.821 138.599C231.086 139.017 231.767 139.885 232.196 140.422L230.399 140.137L228.789 138.346ZM201.032 143.225L206.436 144.885L204.508 146.425L199.074 143.948L201.032 143.225ZM201.266 149.014L193.444 149.811L195.177 145.307L198.025 144.335L203.767 147.016L201.266 149.014ZM212.024 143.635L218.99 144.987C219.167 145.021 219.351 144.953 219.437 144.821L220.578 143.074L224.283 144.196L226.713 146.188L221.51 148.656L212.529 146.512C212.494 146.498 212.456 146.488 212.416 146.485L209.825 145.866L212.024 143.635ZM211.292 154.734L215.938 148.124L218.921 148.851L214.987 155.893L211.292 154.734ZM207.192 153.45L212.419 147.266L215.111 147.922L210.365 154.445L207.192 153.45ZM209.215 146.485L211.623 147.072L206.314 153.174L203.492 152.29L209.215 146.485ZM222.694 158.308L215.965 156.199L219.779 149.06L221.358 149.445L222.347 150.321L220.63 154.209C220.522 154.454 220.617 154.747 220.849 154.881L224.769 157.135L222.694 158.308ZM225.854 156.523L221.726 154.208L223.079 150.968L227.992 155.315L225.854 156.523ZM228.869 154.82L222.321 149.183L227.375 146.731L233.824 152.021L228.869 154.82Z" fill="white"/>
<path d="M202.421 136.166L209.176 136.903C209.192 136.905 209.209 136.906 209.225 136.906C209.373 136.906 209.529 136.838 209.59 136.743C209.658 136.638 209.583 136.54 209.425 136.522L203.751 135.912L208.001 135.03L212.154 135.033H212.155H212.156L219.469 135.038H219.47C219.628 135.038 219.758 134.962 219.76 134.869C219.762 134.777 219.636 134.702 219.479 134.702L212.713 134.697L214.947 132.746C215.028 132.674 214.993 132.588 214.871 132.553C214.749 132.518 214.584 132.548 214.502 132.619L212.905 133.979L208.936 133.824L210.575 132.879C210.686 132.815 210.695 132.726 210.596 132.68C210.498 132.634 210.329 132.648 210.218 132.711L208.304 133.799L206.112 133.713C206.1 133.713 206.087 133.713 206.074 133.713L203.257 133.821L206.459 132.637C206.597 132.586 206.659 132.498 206.598 132.44C206.537 132.383 206.379 132.377 206.242 132.427L202.326 133.857L194.89 134.138C194.733 134.144 194.557 134.219 194.494 134.307C194.432 134.394 194.509 134.461 194.669 134.455L205.916 134.025L212.551 134.288L212.082 134.696L208.105 134.693H208.105C208.07 134.693 208.034 134.697 207.998 134.704L202.665 135.798L193.504 135.064C193.352 135.053 193.15 135.122 193.05 135.219C192.949 135.317 192.99 135.407 193.142 135.419L200.882 136.046L196.858 138.037C196.674 138.128 196.587 138.263 196.665 138.338C196.699 138.37 196.758 138.386 196.83 138.386C196.924 138.386 197.039 138.359 197.145 138.306L201.546 136.098L202.421 136.166Z" fill="white"/>
<path d="M245.317 138.136L224.852 136.12C224.754 136.109 224.655 136.111 224.561 136.127L221.213 136.701L219.294 135.571L220.746 134.569C220.861 134.49 220.911 134.385 220.884 134.282C220.856 134.181 220.754 134.091 220.605 134.035L212.084 130.789C211.867 130.709 211.714 130.656 211.504 130.778C211.292 130.902 211.435 130.946 211.653 131.028L219.331 134.41L218.072 135.242L195.72 137.658C195.296 137.705 194.611 138.204 194.458 138.465C194.32 138.7 194.252 139.136 194.601 139.136C194.646 139.136 194.696 139.133 194.747 139.127L218.156 136.036L219.711 136.991L192.562 142.23C192.046 142.333 191.507 142.685 191.359 143.023C191.237 143.302 191.118 143.843 191.482 143.843C191.567 143.843 191.661 143.833 191.764 143.812L220.864 137.701L266.609 166.443C267.157 166.783 267.647 166.954 267.999 166.954C268.374 166.954 269.066 166.429 269.021 166.052C268.937 165.337 268.94 164.24 267.843 163.601L222.422 137.413L224.904 136.974L246.27 139.563C246.724 139.615 246.789 139.242 246.621 138.966C246.456 138.695 245.747 138.182 245.317 138.136Z" fill="#FFD900"/>
<path d="M245.15 173.536C245.014 173.536 244.861 173.506 244.703 173.441L190.952 152.614C190.689 152.508 190.683 152.253 190.933 152.046C191.178 151.843 191.584 151.761 191.843 151.863L245.14 172.084C245.668 172.291 245.786 172.648 245.763 173.075C245.746 173.383 245.482 173.536 245.15 173.536Z" fill="white"/>
<path d="M199.687 155.361L198.784 155.094L200.61 149.307L201.514 149.574L199.687 155.361Z" fill="white"/>
<path d="M193.886 155.117L228.747 169.117L187.928 170.621L193.886 155.117Z" fill="#62DAAE"/>
<path d="M211.289 159.326L199.537 154.768L201.125 149.853L213.03 140.214L210.921 139.389L221.688 137.121L219.295 135.744L233.525 135.255C233.525 135.255 233.252 135.036 233.249 135.036L217.946 135.377L220.374 136.933L209.114 139.164L211.961 140.349L200.637 149.722L198.858 155.08L210.551 159.881L211.289 159.326Z" fill="#FCA82B"/>
</g>
<path d="M210.602 147.317C207.997 147.317 205.879 149.383 205.789 151.967H205.779C205.779 151.967 205.158 154.765 210.58 159.987C213.011 157.647 214.225 155.795 214.827 154.462C215.206 153.772 215.424 152.981 215.424 152.138C215.424 149.475 213.266 147.317 210.602 147.317ZM210.602 154.172C209.478 154.172 208.568 153.262 208.568 152.138C208.568 151.015 209.478 150.104 210.602 150.104C211.726 150.104 212.636 151.015 212.636 152.138C212.636 153.262 211.726 154.172 210.602 154.172Z" fill="#FC642B"/>
<path d="M218.522 127.957H215.885V128.366C215.885 129.226 215.181 129.93 214.32 129.93H205.773C204.913 129.93 204.209 129.227 204.209 128.366V127.957H201.571C200.649 128.198 199.962 129.039 199.962 130.034V131.787H220.131V130.034C220.131 129.039 219.444 128.198 218.522 127.957Z" fill="#6D6E71"/>
<path d="M213.512 165.225C213.512 165.308 213.443 165.377 213.36 165.377H206.733C206.65 165.377 206.582 165.308 206.582 165.225V165.224C206.582 165.141 206.65 165.073 206.733 165.073H213.36C213.443 165.073 213.512 165.141 213.512 165.224V165.225H213.512Z" fill="black"/>
</g>
<defs>
<filter id="filter0_d_394_428" x="-4" y="0" width="410" height="178.585" filterUnits="userSpaceOnUse" color-interpolation-filters="sRGB">
<feFlood flood-opacity="0" result="BackgroundImageFix"/>
<feColorMatrix in="SourceAlpha" type="matrix" values="0 0 0 0 0 0 0 0 0 0 0 0 0 0 0 0 0 0 127 0" result="hardAlpha"/>
<feOffset dy="4"/>
<feGaussianBlur stdDeviation="2"/>
<feComposite in2="hardAlpha" operator="out"/>
<feColorMatrix type="matrix" values="0 0 0 0 0 0 0 0 0 0 0 0 0 0 0 0 0 0 0.25 0"/>
<feBlend mode="normal" in2="BackgroundImageFix" result="effect1_dropShadow_394_428"/>
<feBlend mode="normal" in="SourceGraphic" in2="effect1_dropShadow_394_428" result="shape"/>
</filter>
<filter id="filter1_d_394_428" x="36.4272" y="140.25" width="82.7334" height="36.7085" filterUnits="userSpaceOnUse" color-interpolation-filters="sRGB">
<feFlood flood-opacity="0" result="BackgroundImageFix"/>
<feColorMatrix in="SourceAlpha" type="matrix" values="0 0 0 0 0 0 0 0 0 0 0 0 0 0 0 0 0 0 127 0" result="hardAlpha"/>
<feOffset dy="4"/>
<feGaussianBlur stdDeviation="2"/>
<feComposite in2="hardAlpha" operator="out"/>
<feColorMatrix type="matrix" values="0 0 0 0 0 0 0 0 0 0 0 0 0 0 0 0 0 0 0.25 0"/>
<feBlend mode="normal" in2="BackgroundImageFix" result="effect1_dropShadow_394_428"/>
<feBlend mode="normal" in="SourceGraphic" in2="effect1_dropShadow_394_428" result="shape"/>
</filter>
<filter id="filter2_d_394_428" x="65.4834" y="121.588" width="17.7607" height="23.484" filterUnits="userSpaceOnUse" color-interpolation-filters="sRGB">
<feFlood flood-opacity="0" result="BackgroundImageFix"/>
<feColorMatrix in="SourceAlpha" type="matrix" values="0 0 0 0 0 0 0 0 0 0 0 0 0 0 0 0 0 0 127 0" result="hardAlpha"/>
<feOffset dy="4"/>
<feGaussianBlur stdDeviation="2"/>
<feComposite in2="hardAlpha" operator="out"/>
<feColorMatrix type="matrix" values="0 0 0 0 0 0 0 0 0 0 0 0 0 0 0 0 0 0 0.25 0"/>
<feBlend mode="normal" in2="BackgroundImageFix" result="effect1_dropShadow_394_428"/>
<feBlend mode="normal" in="SourceGraphic" in2="effect1_dropShadow_394_428" result="shape"/>
</filter>
<filter id="filter3_d_394_428" x="158" y="123" width="38.9326" height="52.0001" filterUnits="userSpaceOnUse" color-interpolation-filters="sRGB">
<feFlood flood-opacity="0" result="BackgroundImageFix"/>
<feColorMatrix in="SourceAlpha" type="matrix" values="0 0 0 0 0 0 0 0 0 0 0 0 0 0 0 0 0 0 127 0" result="hardAlpha"/>
<feOffset dy="4"/>
<feGaussianBlur stdDeviation="2"/>
<feComposite in2="hardAlpha" operator="out"/>
<feColorMatrix type="matrix" values="0 0 0 0 0 0 0 0 0 0 0 0 0 0 0 0 0 0 0.25 0"/>
<feBlend mode="normal" in2="BackgroundImageFix" result="effect1_dropShadow_394_428"/>
<feBlend mode="normal" in="SourceGraphic" in2="effect1_dropShadow_394_428" result="shape"/>
</filter>
<filter id="filter4_d_394_428" x="195" y="127" width="30.2974" height="48.0001" filterUnits="userSpaceOnUse" color-interpolation-filters="sRGB">
<feFlood flood-opacity="0" result="BackgroundImageFix"/>
<feColorMatrix in="SourceAlpha" type="matrix" values="0 0 0 0 0 0 0 0 0 0 0 0 0 0 0 0 0 0 127 0" result="hardAlpha"/>
<feOffset dy="4"/>
<feGaussianBlur stdDeviation="2"/>
<feComposite in2="hardAlpha" operator="out"/>
<feColorMatrix type="matrix" values="0 0 0 0 0 0 0 0 0 0 0 0 0 0 0 0 0 0 0.25 0"/>
<feBlend mode="normal" in2="BackgroundImageFix" result="effect1_dropShadow_394_428"/>
<feBlend mode="normal" in="SourceGraphic" in2="effect1_dropShadow_394_428" result="shape"/>
</filter>
</defs>
</svg>
